<svg width="19" height="19" viewBox="0 0 19 19" fill="none" xmlns="http://www.w3.org/2000/svg">
<path d="M18.3176 15.715L17.6507 8.716C17.5037 7.176 16.3327 6 14.6647 6H14.0846V5C14.0846 2.38 11.9546 0.25 9.33462 0.25C6.71462 0.25 4.58462 2.38 4.58462 5V6H4.00466C2.33666 6 1.1647 7.176 1.0187 8.716L0.351585 15.715C0.183585 17.476 1.33767 19 3.33767 19H15.3346C17.3316 19 18.4856 17.477 18.3176 15.715ZM6.08364 5C6.08364 3.21 7.54364 1.75 9.33364 1.75C11.1236 1.75 12.5836 3.21 12.5836 5V6H6.08364V5ZM5.35366 11C4.80166 11 4.34865 10.552 4.34865 10C4.34865 9.448 4.79165 9 5.34365 9H5.35366C5.90666 9 6.35366 9.448 6.35366 10C6.35366 10.552 5.90566 11 5.35366 11ZM13.3537 11C12.8017 11 12.3487 10.552 12.3487 10C12.3487 9.448 12.7916 9 13.3436 9H13.3537C13.9067 9 14.3537 9.448 14.3537 10C14.3537 10.552 13.9057 11 13.3537 11Z" fill="white"/>
</svg>
