<svg width="24" height="24" viewBox="0 0 24 24" fill="none" xmlns="http://www.w3.org/2000/svg">
<path d="M19.5 14.0003C19.5 18.1354 16.136 21.5003 12 21.5003C7.864 21.5003 4.5 18.1354 4.5 14.0003C4.5 11.7523 5.142 10.1513 6.646 8.64635C6.941 8.35035 7.275 8.05434 7.621 7.74834C9.037 6.49434 10.5 5.19737 10.5 2.99937C10.5 2.81537 10.602 2.64533 10.764 2.55833C10.926 2.47133 11.123 2.48036 11.277 2.58336C11.337 2.62336 16.915 6.44633 14.055 13.0143C14.726 12.6393 15.529 12.0243 16.022 11.0693C16.338 10.4573 16.499 9.76137 16.499 8.99937C16.499 8.79637 16.622 8.61336 16.81 8.53636C16.996 8.45936 17.213 8.50336 17.356 8.64836C18.719 10.0334 19.5 11.9844 19.5 14.0003Z" fill="#FFC107"/>
</svg>
