<svg width="18" height="18" viewBox="0 0 18 18" fill="none" xmlns="http://www.w3.org/2000/svg">
<path d="M15.5 7.75H12.5C11.091 7.75 10.25 6.909 10.25 5.5V2.5C10.25 1.091 11.091 0.25 12.5 0.25H15.5C16.909 0.25 17.75 1.091 17.75 2.5V5.5C17.75 6.909 16.909 7.75 15.5 7.75ZM12.5 1.75C11.911 1.75 11.75 1.911 11.75 2.5V5.5C11.75 6.089 11.911 6.25 12.5 6.25H15.5C16.089 6.25 16.25 6.089 16.25 5.5V2.5C16.25 1.911 16.089 1.75 15.5 1.75H12.5ZM5.5 7.75H2.5C1.091 7.75 0.25 6.909 0.25 5.5V2.5C0.25 1.091 1.091 0.25 2.5 0.25H5.5C6.909 0.25 7.75 1.091 7.75 2.5V5.5C7.75 6.909 6.909 7.75 5.5 7.75ZM2.5 1.75C1.911 1.75 1.75 1.911 1.75 2.5V5.5C1.75 6.089 1.911 6.25 2.5 6.25H5.5C6.089 6.25 6.25 6.089 6.25 5.5V2.5C6.25 1.911 6.089 1.75 5.5 1.75H2.5ZM15.5 17.75H12.5C11.091 17.75 10.25 16.909 10.25 15.5V12.5C10.25 11.091 11.091 10.25 12.5 10.25H15.5C16.909 10.25 17.75 11.091 17.75 12.5V15.5C17.75 16.909 16.909 17.75 15.5 17.75ZM12.5 11.75C11.911 11.75 11.75 11.911 11.75 12.5V15.5C11.75 16.089 11.911 16.25 12.5 16.25H15.5C16.089 16.25 16.25 16.089 16.25 15.5V12.5C16.25 11.911 16.089 11.75 15.5 11.75H12.5ZM5.5 17.75H2.5C1.091 17.75 0.25 16.909 0.25 15.5V12.5C0.25 11.091 1.091 10.25 2.5 10.25H5.5C6.909 10.25 7.75 11.091 7.75 12.5V15.5C7.75 16.909 6.909 17.75 5.5 17.75ZM2.5 11.75C1.911 11.75 1.75 11.911 1.75 12.5V15.5C1.75 16.089 1.911 16.25 2.5 16.25H5.5C6.089 16.25 6.25 16.089 6.25 15.5V12.5C6.25 11.911 6.089 11.75 5.5 11.75H2.5Z" fill="white"/>
</svg>
