<svg width="25" height="24" viewBox="0 0 25 24" fill="none" xmlns="http://www.w3.org/2000/svg">
<path d="M21.3966 10.645C21.2066 8.646 19.6705 7.25 17.6635 7.25H17.0836V7C17.0836 4.381 14.9526 2.25 12.3336 2.25C9.71458 2.25 7.58358 4.381 7.58358 7V7.25H7.00363C4.99563 7.25 3.4606 8.646 3.2706 10.645L2.6036 17.645C2.4976 18.767 2.82352 19.809 3.52352 20.579C4.21152 21.335 5.21054 21.751 6.33554 21.751H18.3316C19.4576 21.751 20.4566 21.334 21.1436 20.579C21.8436 19.809 22.1696 18.767 22.0636 17.646L21.3966 10.645ZM9.08358 7C9.08358 5.208 10.5416 3.75 12.3336 3.75C14.1256 3.75 15.5836 5.208 15.5836 7V7.25H9.08358V7ZM20.0335 19.568C19.6285 20.014 19.0396 20.25 18.3316 20.25H6.33554C5.62754 20.25 5.03863 20.015 4.63363 19.568C4.22163 19.115 4.03062 18.482 4.09762 17.786L4.76461 10.787C4.87961 9.568 5.78063 8.75 7.00363 8.75H17.6635C18.8875 8.75 19.7876 9.568 19.9026 10.787L20.5695 17.787C20.6365 18.482 20.4455 19.115 20.0335 19.568ZM9.3536 12C9.3536 12.552 8.9066 13 8.3536 13C7.8016 13 7.3486 12.552 7.3486 12C7.3486 11.448 7.79159 11 8.34359 11H8.3536C8.9056 11 9.3536 11.448 9.3536 12ZM17.3536 12C17.3536 12.552 16.9066 13 16.3536 13C15.8016 13 15.3486 12.552 15.3486 12C15.3486 11.448 15.7916 11 16.3436 11H16.3536C16.9056 11 17.3536 11.448 17.3536 12Z" fill="white"/>
</svg>
