<svg width="24" height="24" viewBox="0 0 24 24" fill="none" xmlns="http://www.w3.org/2000/svg">
<path d="M14.1689 20.2518C13.7129 21.0328 12.9049 21.4998 12.0069 21.4998C11.1089 21.4998 10.2999 21.0328 9.84491 20.2518C9.75491 20.0968 9.7549 19.9058 9.8439 19.7508C9.9329 19.5958 10.0979 19.4998 10.2779 19.4998H13.7379C13.9169 19.4998 14.0819 19.5958 14.1719 19.7508C14.2619 19.9058 14.2589 20.0978 14.1689 20.2518ZM20.4019 17.6898C20.3819 17.6598 18.5019 15.2798 18.5019 12.4998V8.99981C18.5019 8.86381 18.4969 8.73082 18.4889 8.59782C18.4799 8.45782 18.3859 8.38381 18.3459 8.35581C18.3099 8.33081 18.2149 8.28381 18.0919 8.32481C17.7579 8.43681 17.3999 8.49681 17.0269 8.49881C15.3259 8.51081 13.7949 7.22982 13.5429 5.54782C13.4159 4.69582 13.5889 3.88981 13.9929 3.22181C14.0969 3.04981 14.0319 2.82081 13.8399 2.76481C12.8039 2.45981 11.6509 2.4008 10.4759 2.6798C7.5139 3.3838 5.5119 6.16882 5.5119 9.21382V12.4998C5.5119 15.2798 3.6319 17.6598 3.6119 17.6898C3.4919 17.8398 3.47191 18.0398 3.55191 18.2198C3.64191 18.3898 3.8119 18.4998 4.0019 18.4998H20.0019C20.2019 18.4998 20.3719 18.3898 20.4619 18.2198C20.5419 18.0398 20.5219 17.8398 20.4019 17.6898ZM17.0019 2.99981C15.8969 2.99981 15.0019 3.89481 15.0019 4.99981C15.0019 6.10481 15.8969 6.99981 17.0019 6.99981C18.1069 6.99981 19.0019 6.10481 19.0019 4.99981C19.0019 3.89481 18.1069 2.99981 17.0019 2.99981Z" fill="white"/>
</svg>
