<svg width="18" height="18" viewBox="0 0 18 18" fill="none" xmlns="http://www.w3.org/2000/svg">
<path d="M13.5007 10.6875C12.4822 10.6875 11.5965 11.2372 11.103 12.051L7.10468 10.0523C7.23668 9.72676 7.31323 9.37275 7.31323 9C7.31323 8.62725 7.23668 8.27324 7.10468 7.94774L11.103 5.94901C11.5965 6.76201 12.4822 7.3125 13.5007 7.3125C15.051 7.3125 16.3132 6.051 16.3132 4.5C16.3132 2.949 15.051 1.6875 13.5007 1.6875C11.9505 1.6875 10.6882 2.949 10.6882 4.5C10.6882 4.62975 10.7093 4.75426 10.7265 4.87951L6.47772 7.00351C5.96922 6.49951 5.271 6.1875 4.5 6.1875C2.94975 6.1875 1.6875 7.449 1.6875 9C1.6875 10.551 2.94975 11.8125 4.5 11.8125C5.27025 11.8125 5.96922 11.4997 6.47772 10.9965L10.7265 13.1205C10.7093 13.2457 10.6882 13.3702 10.6882 13.5C10.6882 15.051 11.9505 16.3125 13.5007 16.3125C15.051 16.3125 16.3132 15.051 16.3132 13.5C16.3132 11.949 15.051 10.6875 13.5007 10.6875ZM13.5007 2.8125C14.4307 2.8125 15.1882 3.56925 15.1882 4.5C15.1882 5.43075 14.4307 6.1875 13.5007 6.1875C12.5707 6.1875 11.8132 5.43075 11.8132 4.5C11.8132 3.56925 12.5707 2.8125 13.5007 2.8125ZM4.50073 10.6875C3.57073 10.6875 2.81323 9.93075 2.81323 9C2.81323 8.06925 3.57073 7.3125 4.50073 7.3125C5.43073 7.3125 6.18823 8.06925 6.18823 9C6.18823 9.93075 5.43073 10.6875 4.50073 10.6875ZM13.5007 15.1875C12.5707 15.1875 11.8132 14.4307 11.8132 13.5C11.8132 12.5693 12.5707 11.8125 13.5007 11.8125C14.4307 11.8125 15.1882 12.5693 15.1882 13.5C15.1882 14.4307 14.4307 15.1875 13.5007 15.1875Z" fill="#51AF5B"/>
</svg>
