<svg width="25" height="24" viewBox="0 0 25 24" fill="none" xmlns="http://www.w3.org/2000/svg">
<path d="M21.3946 10.645C21.2046 8.646 19.6686 7.25 17.6616 7.25H17.0816V7C17.0816 4.381 14.9506 2.25 12.3316 2.25C9.71263 2.25 7.58163 4.381 7.58163 7V7.25H7.00167C4.99367 7.25 3.45864 8.646 3.26864 10.645L2.60165 17.645C2.49565 18.767 2.82157 19.809 3.52157 20.579C4.20957 21.335 5.20858 21.751 6.33358 21.751H18.3297C19.4557 21.751 20.4547 21.334 21.1417 20.579C21.8417 19.809 22.1676 18.767 22.0616 17.646L21.3946 10.645ZM9.08163 7C9.08163 5.208 10.5396 3.75 12.3316 3.75C14.1236 3.75 15.5816 5.208 15.5816 7V7.25H9.08163V7ZM20.0316 19.568C19.6266 20.014 19.0377 20.25 18.3297 20.25H6.33358C5.62558 20.25 5.03668 20.015 4.63168 19.568C4.21968 19.115 4.02867 18.482 4.09567 17.786L4.76266 10.787C4.87766 9.568 5.77867 8.75 7.00167 8.75H17.6616C18.8856 8.75 19.7856 9.568 19.9006 10.787L20.5676 17.787C20.6346 18.482 20.4436 19.115 20.0316 19.568ZM9.35165 12C9.35165 12.552 8.90465 13 8.35165 13C7.79965 13 7.34664 12.552 7.34664 12C7.34664 11.448 7.78964 11 8.34164 11H8.35165C8.90365 11 9.35165 11.448 9.35165 12ZM17.3517 12C17.3517 12.552 16.9046 13 16.3517 13C15.7997 13 15.3466 12.552 15.3466 12C15.3466 11.448 15.7896 11 16.3416 11H16.3517C16.9037 11 17.3517 11.448 17.3517 12Z" fill="white"/>
</svg>
